# xmcd
#
# Track frame offsets:
#	150
#	12547
#	28620
#	44530
#	62427
#	73177
#	87717
#	101185
#	116157
#	131532
#	148487
#	160237
#
# Disc length: 2346 seconds
#
# Revision: 0
# Processed by: cddbd v1.4PL0 Copyright (c) Steve Scherf et al.
# Submitted via: EasyCDDAExtractor 4.6.0.1
#
DISCID=b909280c
DTITLE=Souvarit - Tähtiyö ja Kuutamo
DYEAR=1900
DGENRE=
TTITLE0=Sä tärkein oot
TTITLE1=Tähtiyö ja kuutamo
TTITLE2=Jäit taakse horisontin
TTITLE3=Luodut toisilleen
TTITLE4=Muistelen ruusua vielä
TTITLE5=Kaamoksen kukka
TTITLE6=Tanssit mun sydämeeni
TTITLE7=Punainen kirje
TTITLE8=Kesäni auringotar
TTITLE9=Yksin kulkijan tie
TTITLE10=Meripojan kaipaus
TTITLE11=Lapinhullu
EXTD=
EXTT0=
EXTT1=
EXTT2=
EXTT3=
EXTT4=
EXTT5=
EXTT6=
EXTT7=
EXTT8=
EXTT9=
EXTT10=
EXTT11=
PLAYORDER=
